<?xml version="1.0" encoding="utf-8"?>
<!-- Generator: Adobe Illustrator 25.4.1, SVG Export Plug-In . SVG Version: 6.00 Build 0)  -->
<svg version="1.1" id="Layer_1" xmlns="http://www.w3.org/2000/svg" xmlns:xlink="http://www.w3.org/1999/xlink" x="0px" y="0px"
	 width="45px" height="45px" viewBox="0 0 45 45" style="enable-background:new 0 0 45 45;" xml:space="preserve">
<style type="text/css">
	.st0{clip-path:url(#SVGID_00000025410958044672552580000010456234306177759631_);}
	.st1{fill:#0ACF83;}
	.st2{fill:#A259FF;}
	.st3{fill:#F24E1E;}
	.st4{fill:#FF7262;}
	.st5{fill:#1ABCFE;}
</style>
<g>
	<defs>
		<rect id="SVGID_1_" x="7.5" width="30" height="45"/>
	</defs>
	<clipPath id="SVGID_00000083791032654075043860000010643965629909220227_">
		<use xlink:href="#SVGID_1_"  style="overflow:visible;"/>
	</clipPath>
	<g style="clip-path:url(#SVGID_00000083791032654075043860000010643965629909220227_);">
		<path class="st1" d="M15,45c4.1,0,7.5-3.4,7.5-7.5V30H15c-4.1,0-7.5,3.4-7.5,7.5C7.5,41.6,10.9,45,15,45z"/>
		<path class="st2" d="M7.5,22.5c0-4.1,3.4-7.5,7.5-7.5h7.5v15H15C10.9,30,7.5,26.6,7.5,22.5z"/>
		<path class="st3" d="M7.5,7.5C7.5,3.4,10.9,0,15,0h7.5v15H15C10.9,15,7.5,11.6,7.5,7.5z"/>
		<path class="st4" d="M22.5,0H30c4.1,0,7.5,3.4,7.5,7.5c0,4.1-3.4,7.5-7.5,7.5h-7.5V0z"/>
		<path class="st5" d="M37.5,22.5c0,4.1-3.4,7.5-7.5,7.5c-4.1,0-7.5-3.4-7.5-7.5S25.9,15,30,15C34.1,15,37.5,18.4,37.5,22.5z"/>
	</g>
</g>
</svg>
